# author: headus 3D tools
#  using: ply2obj v1.12
#   from: uvlayout v2024.01
# 24 vertices
v 956.5541 0.0000 493.3503
v 956.5541 0.0000 -493.3503
v 913.8654 0.0000 -457.9088
v 913.8654 0.0000 457.9089
v 13.8899 0.0000 -493.3503
v 13.2700 0.0000 -457.9087
v 881.1033 0.0000 -430.7088
v 881.1033 0.0000 430.7087
v 12.7943 0.0000 -430.7086
v 12.7943 0.0000 430.7086
v 13.8899 0.0000 493.3503
v 13.2700 0.0000 457.9087
v -13.2700 0.0000 457.9087
v -13.8899 0.0000 493.3503
v -12.7943 0.0000 430.7086
v -956.5541 0.0000 493.3503
v -913.8655 0.0000 457.9089
v -913.8655 0.0000 -457.9088
v -956.5541 0.0000 -493.3503
v -13.2700 0.0000 -457.9087
v -13.8899 0.0000 -493.3503
v -881.1035 0.0000 430.7087
v -881.1035 0.0000 -430.7088
v -12.7943 0.0000 -430.7086
# 1 normals
vn 0.000000 1.000000 0.000000
# 24 uv coords
vt 0.956691 0.721471
vt 0.960721 0.260150
vt 0.503026 0.717543
vt 0.940308 0.707631
vt 0.944098 0.273699
vt 0.502911 0.703816
vt 0.506699 0.269874
vt 0.507062 0.256151
vt 0.493695 0.256027
vt 0.493811 0.269755
vt 0.040031 0.252099
vt 0.036000 0.713420
vt 0.489659 0.717419
vt 0.056414 0.265938
vt 0.052624 0.699870
vt 0.490023 0.703697
vt 0.489188 0.735287
vt 0.014338 0.731076
vt 0.018681 0.234067
vt 0.493538 0.238155
vt 0.503182 0.735416
vt 0.507533 0.238285
vt 0.982383 0.242493
vt 0.978040 0.739502
# 19 polygons
usemtl wire_228153184
s off
g Cancha
f 1/23/1 2/24/1 3/1/1 4/2/1
f 2/24/1 5/21/1 6/3/1 3/1/1
f 4/2/1 3/1/1 7/4/1 8/5/1
f 3/1/1 6/3/1 9/6/1 7/4/1
s 1
f 10/7/1 8/5/1 7/4/1 9/6/1
s off
f 11/22/1 1/23/1 4/2/1 12/8/1
f 12/8/1 4/2/1 8/5/1 10/7/1
f 11/22/1 12/8/1 13/9/1 14/20/1
f 12/8/1 10/7/1 15/10/1 13/9/1
f 16/19/1 17/11/1 18/12/1 19/18/1
f 19/18/1 18/12/1 20/13/1 21/17/1
f 17/11/1 22/14/1 23/15/1 18/12/1
f 18/12/1 23/15/1 24/16/1 20/13/1
s 1
f 15/10/1 24/16/1 23/15/1 22/14/1
s off
f 14/20/1 13/9/1 17/11/1 16/19/1
f 21/17/1 20/13/1 6/3/1 5/21/1
f 13/9/1 15/10/1 22/14/1 17/11/1
f 20/13/1 24/16/1 9/6/1 6/3/1
s 1
f 10/7/1 9/6/1 24/16/1 15/10/1
# h3dt: 24 24 1 19
