# 3ds Max Wavefront OBJ Exporter v0.99 - (c)2007 guruware
# File Created: 13.03.2024 23:47:09

mtllib Columna.mtl

#
# object Columna009
#

v  53.9835 -9.4061 -8.8032
v  32.9006 -9.4061 -0.0704
v  11.8177 -9.4061 -8.8032
v  3.0848 -9.4061 -29.8862
v  11.8177 -9.4061 -50.9691
v  32.9006 -9.4061 -59.7019
v  53.9835 -9.4061 -50.9691
v  62.7163 -9.4061 -29.8862
v  49.0043 2.4274 -31.0510
v  45.1114 2.4274 -40.4496
v  45.1114 121.3579 -40.4496
v  49.0043 121.3579 -31.0510
v  43.4641 2.4274 -42.0969
v  34.0655 2.4274 -45.9900
v  34.0655 121.3579 -45.9900
v  43.4641 121.3579 -42.0969
v  31.7358 2.4274 -45.9900
v  22.3371 2.4274 -42.0969
v  22.3371 121.3579 -42.0969
v  31.7358 121.3579 -45.9900
v  20.6898 2.4274 -40.4496
v  16.7969 2.4274 -31.0510
v  16.7969 121.3579 -31.0510
v  20.6898 121.3579 -40.4496
v  16.7969 2.4274 -28.7215
v  20.6898 2.4274 -19.3227
v  20.6898 121.3579 -19.3227
v  16.7969 121.3579 -28.7215
v  22.3371 2.4274 -17.6756
v  31.7358 2.4274 -13.7825
v  31.7358 121.3579 -13.7825
v  22.3371 121.3579 -17.6756
v  34.0655 2.4274 -13.7825
v  43.4641 2.4274 -17.6756
v  43.4641 121.3579 -17.6756
v  34.0655 121.3579 -13.7825
v  45.1114 2.4274 -19.3227
v  49.0043 2.4274 -28.7215
v  49.0043 121.3579 -28.7215
v  45.1114 121.3579 -19.3227
v  53.9835 133.1911 -8.8032
v  62.7163 133.1911 -29.8862
v  53.9835 133.1911 -50.9691
v  32.9006 133.1911 -59.7019
v  11.8177 133.1911 -50.9691
v  3.0848 133.1911 -29.8862
v  11.8177 133.1911 -8.8032
v  32.9006 133.1911 -0.0704
v  46.7844 0.0000 -43.7700
v  52.5352 0.0000 -29.8862
v  46.7844 0.0000 -16.0023
v  32.9006 0.0000 -10.2515
v  19.0168 0.0000 -16.0023
v  13.2660 0.0000 -29.8862
v  19.0168 0.0000 -43.7700
v  32.9006 0.0000 -49.5210
v  52.5352 123.7852 -29.8862
v  46.7844 123.7852 -43.7700
v  32.9006 123.7852 -49.5210
v  19.0168 123.7852 -43.7700
v  13.2660 123.7852 -29.8862
v  19.0168 123.7852 -16.0023
v  32.9006 123.7852 -10.2515
v  46.7844 123.7852 -16.0023
v  47.7133 2.4274 -41.5275
v  51.6064 2.4274 -32.1289
v  47.7133 121.3579 -41.5275
v  51.6064 121.3579 -32.1289
v  35.1431 2.4274 -48.5919
v  44.5419 2.4274 -44.6990
v  35.1431 121.3579 -48.5919
v  44.5419 121.3579 -44.6990
v  21.2593 2.4274 -44.6990
v  30.6581 2.4274 -48.5919
v  21.2593 121.3579 -44.6990
v  30.6581 121.3579 -48.5919
v  14.1948 2.4274 -32.1289
v  18.0879 2.4274 -41.5275
v  14.1948 121.3579 -32.1289
v  18.0879 121.3579 -41.5275
v  18.0879 2.4274 -18.2450
v  14.1948 2.4274 -27.6436
v  18.0879 121.3579 -18.2450
v  14.1948 121.3579 -27.6436
v  30.6581 2.4274 -11.1804
v  21.2593 2.4274 -15.0735
v  30.6581 121.3579 -11.1804
v  21.2593 121.3579 -15.0735
v  44.5419 2.4274 -15.0735
v  35.1431 2.4274 -11.1804
v  44.5419 121.3579 -15.0735
v  35.1431 121.3579 -11.1804
v  51.6064 2.4274 -27.6436
v  47.7133 2.4274 -18.2450
v  51.6064 121.3579 -27.6436
v  47.7133 121.3579 -18.2450
# 96 vertices

vn 0.6735 -0.3048 0.6735
vn 0.0000 -0.3048 0.9524
vn -0.6735 -0.3048 0.6735
vn -0.9524 -0.3048 -0.0000
vn -0.6735 -0.3048 -0.6735
vn 0.0000 -0.3048 -0.9524
vn 0.6735 -0.3048 -0.6735
vn 0.9524 -0.3048 -0.0000
vn 0.3124 0.5774 -0.7543
vn 0.7543 0.5774 0.3125
vn 0.7543 -0.5774 0.3125
vn 0.3124 -0.5774 -0.7543
vn -0.3125 0.5773 -0.7543
vn 0.7543 0.5774 -0.3125
vn 0.7543 -0.5774 -0.3125
vn -0.3125 -0.5773 -0.7543
vn -0.7543 0.5773 -0.3125
vn 0.3125 0.5773 -0.7543
vn 0.3125 -0.5773 -0.7543
vn -0.7543 -0.5773 -0.3125
vn -0.7544 0.5774 0.3124
vn -0.3125 0.5774 -0.7543
vn -0.3125 -0.5774 -0.7543
vn -0.7544 -0.5774 0.3124
vn -0.3125 0.5774 0.7543
vn -0.7543 0.5774 -0.3125
vn -0.7543 -0.5774 -0.3125
vn -0.3125 -0.5774 0.7543
vn 0.3125 0.5774 0.7543
vn -0.7543 0.5773 0.3125
vn -0.7543 -0.5773 0.3125
vn 0.3125 -0.5774 0.7543
vn 0.7543 0.5773 0.3125
vn 0.7543 -0.5773 0.3125
vn 0.7544 0.5773 -0.3124
vn 0.7544 -0.5773 -0.3124
vn 0.6735 0.3048 0.6735
vn 0.9524 0.3048 -0.0000
vn 0.6735 0.3048 -0.6735
vn 0.0000 0.3048 -0.9524
vn -0.6735 0.3048 -0.6735
vn -0.9524 0.3048 -0.0000
vn -0.6735 0.3048 0.6735
vn 0.0000 0.3048 0.9524
vn 0.6343 0.4419 -0.6343
vn 0.8971 0.4419 0.0000
vn 0.6343 0.4419 0.6343
vn 0.0000 0.4419 0.8970
vn -0.6343 0.4419 0.6343
vn -0.8971 0.4419 0.0000
vn -0.6343 0.4419 -0.6343
vn 0.0000 0.4419 -0.8970
vn 0.8970 -0.4419 0.0000
vn 0.6343 -0.4419 -0.6343
vn 0.0000 -0.4419 -0.8970
vn -0.6343 -0.4419 -0.6343
vn -0.8970 -0.4419 0.0000
vn -0.6343 -0.4419 0.6343
vn 0.0000 -0.4419 0.8970
vn 0.6343 -0.4419 0.6343
vn 0.9511 0.3015 -0.0676
vn 0.7203 0.3015 -0.6247
vn 0.9511 -0.3015 -0.0676
vn 0.7203 -0.3015 -0.6247
vn 0.6247 0.3015 -0.7203
vn 0.0676 0.3015 -0.9511
vn 0.6247 -0.3015 -0.7203
vn 0.0676 -0.3015 -0.9511
vn -0.0676 0.3015 -0.9511
vn -0.6247 0.3015 -0.7203
vn -0.0676 -0.3015 -0.9511
vn -0.6247 -0.3015 -0.7203
vn -0.7203 0.3015 -0.6247
vn -0.9511 0.3015 -0.0677
vn -0.7203 -0.3015 -0.6247
vn -0.9511 -0.3015 -0.0677
vn -0.9511 0.3015 0.0676
vn -0.7203 0.3015 0.6247
vn -0.9511 -0.3015 0.0676
vn -0.7203 -0.3015 0.6247
vn -0.6247 0.3015 0.7203
vn -0.0676 0.3015 0.9511
vn -0.6247 -0.3015 0.7203
vn -0.0676 -0.3015 0.9511
vn 0.0676 0.3015 0.9511
vn 0.6247 0.3015 0.7203
vn 0.0676 -0.3015 0.9511
vn 0.6247 -0.3015 0.7203
vn 0.7203 0.3015 0.6247
vn 0.9510 0.3016 0.0676
vn 0.7203 -0.3015 0.6247
vn 0.9510 -0.3016 0.0676
# 92 vertex normals

vt 0.8922 0.7180 0.0000
vt 0.8314 0.7540 0.0000
vt 0.7629 0.7363 0.0000
vt 0.7273 0.6742 0.0000
vt 0.7420 0.6067 0.0000
vt 0.8055 0.5712 0.0000
vt 0.8739 0.5888 0.0000
vt 0.9098 0.6496 0.0000
vt 0.6811 0.4410 0.0000
vt 0.6816 0.4691 0.0000
vt 0.3174 0.4758 0.0000
vt 0.3169 0.4477 0.0000
vt 0.6823 0.5020 0.0000
vt 0.6828 0.5300 0.0000
vt 0.3185 0.5368 0.0000
vt 0.3180 0.5087 0.0000
vt 0.6834 0.5610 0.0000
vt 0.6840 0.5889 0.0000
vt 0.3196 0.5956 0.0000
vt 0.3191 0.5677 0.0000
vt 0.6844 0.6149 0.0000
vt 0.6849 0.6425 0.0000
vt 0.3207 0.6492 0.0000
vt 0.3202 0.6216 0.0000
vt 0.6766 0.2068 0.0000
vt 0.6771 0.2345 0.0000
vt 0.3130 0.2412 0.0000
vt 0.3124 0.2135 0.0000
vt 0.6777 0.2605 0.0000
vt 0.6782 0.2884 0.0000
vt 0.3139 0.2951 0.0000
vt 0.3134 0.2673 0.0000
vt 0.6788 0.3190 0.0000
vt 0.6793 0.3470 0.0000
vt 0.3151 0.3537 0.0000
vt 0.3145 0.3258 0.0000
vt 0.6799 0.3797 0.0000
vt 0.6805 0.4077 0.0000
vt 0.3162 0.4145 0.0000
vt 0.3157 0.3864 0.0000
vt 0.1164 0.7325 0.0000
vt 0.0962 0.6648 0.0000
vt 0.1298 0.6027 0.0000
vt 0.1975 0.5825 0.0000
vt 0.2623 0.6156 0.0000
vt 0.2795 0.6825 0.0000
vt 0.2462 0.7459 0.0000
vt 0.1785 0.7661 0.0000
vt 0.6924 0.4852 0.0000
vt 0.6912 0.4242 0.0000
vt 0.7326 0.4235 0.0000
vt 0.7340 0.4838 0.0000
vt 0.6901 0.3634 0.0000
vt 0.7317 0.3632 0.0000
vt 0.6893 0.3038 0.0000
vt 0.7316 0.3034 0.0000
vt 0.6886 0.2472 0.0000
vt 0.7319 0.2421 0.0000
vt 0.6846 0.1967 0.0000
vt 0.7196 0.1768 0.0000
vt 0.6931 0.6524 0.0000
vt 0.6960 0.6020 0.0000
vt 0.6942 0.5452 0.0000
vt 0.7367 0.5439 0.0000
vt 0.3061 0.4313 0.0000
vt 0.3072 0.4923 0.0000
vt 0.2656 0.4925 0.0000
vt 0.2647 0.4322 0.0000
vt 0.3078 0.5523 0.0000
vt 0.2652 0.5527 0.0000
vt 0.3080 0.6091 0.0000
vt 0.3129 0.6594 0.0000
vt 0.3040 0.2037 0.0000
vt 0.3020 0.2544 0.0000
vt 0.2585 0.2509 0.0000
vt 0.2683 0.1852 0.0000
vt 0.3034 0.3109 0.0000
vt 0.2611 0.3121 0.0000
vt 0.3049 0.3705 0.0000
vt 0.2633 0.3719 0.0000
vt 0.6856 0.4730 0.0000
vt 0.6849 0.4369 0.0000
vt 0.3136 0.4799 0.0000
vt 0.3129 0.4438 0.0000
vt 0.6868 0.5340 0.0000
vt 0.6861 0.4979 0.0000
vt 0.3147 0.5409 0.0000
vt 0.3140 0.5048 0.0000
vt 0.6879 0.5928 0.0000
vt 0.6873 0.5569 0.0000
vt 0.3158 0.5997 0.0000
vt 0.3151 0.5638 0.0000
vt 0.6888 0.6464 0.0000
vt 0.6883 0.6109 0.0000
vt 0.3170 0.6532 0.0000
vt 0.3161 0.6178 0.0000
vt 0.6812 0.2383 0.0000
vt 0.6803 0.2028 0.0000
vt 0.3090 0.2452 0.0000
vt 0.3086 0.2097 0.0000
vt 0.6822 0.2923 0.0000
vt 0.6815 0.2564 0.0000
vt 0.3101 0.2992 0.0000
vt 0.3094 0.2633 0.0000
vt 0.6833 0.3510 0.0000
vt 0.6826 0.3149 0.0000
vt 0.3112 0.3578 0.0000
vt 0.3105 0.3217 0.0000
vt 0.6844 0.4117 0.0000
vt 0.6838 0.3756 0.0000
vt 0.3124 0.4186 0.0000
vt 0.3117 0.3825 0.0000
# 112 texture coords

o Columna009
g Columna009
usemtl wire_224198087
s 1
f 1/1/1 2/2/2 3/3/3 4/4/4 5/5/5 6/6/6 7/7/7 8/8/8 
s 8
f 9/9/9 10/10/10 11/11/11 12/12/12 
f 13/13/13 14/14/14 15/15/15 16/16/16 
f 17/17/17 18/18/18 19/19/19 20/20/20 
f 21/21/21 22/22/22 23/23/23 24/24/24 
f 25/25/25 26/26/26 27/27/27 28/28/28 
f 29/29/29 30/30/30 31/31/31 32/32/32 
f 33/33/33 34/34/25 35/35/28 36/36/34 
f 37/37/35 38/38/29 39/39/32 40/40/36 
s 1
f 41/41/37 42/42/38 43/43/39 44/44/40 45/45/41 46/46/42 47/47/43 48/48/44 
s off
f 49/49/45 50/50/46 8/51/8 7/52/7 
f 50/50/46 51/53/47 1/54/1 8/51/8 
f 51/53/47 52/55/48 2/56/2 1/54/1 
f 52/55/48 53/57/49 3/58/3 2/56/2 
f 53/57/49 54/59/50 4/60/4 3/58/3 
f 54/61/50 55/62/51 5/5/5 4/4/4 
f 55/62/51 56/63/52 6/64/6 5/5/5 
f 56/63/52 49/49/45 7/52/7 6/64/6 
f 57/65/53 58/66/54 43/67/39 42/68/38 
f 58/66/54 59/69/55 44/70/40 43/67/39 
f 59/69/55 60/71/56 45/45/41 44/70/40 
f 60/71/56 61/72/57 46/46/42 45/45/41 
f 61/73/57 62/74/58 47/75/43 46/76/42 
f 62/74/58 63/77/59 48/78/44 47/75/43 
f 63/77/59 64/79/60 41/80/37 48/78/44 
f 64/79/60 57/65/53 42/68/38 41/80/37 
f 50/50/46 49/49/45 65/81/61 66/82/62 
f 49/49/45 58/66/54 67/83/63 65/81/61 
f 58/66/54 57/65/53 68/84/64 67/83/63 
f 57/65/53 50/50/46 66/82/62 68/84/64 
f 49/49/45 56/63/52 69/85/65 70/86/66 
f 56/63/52 59/69/55 71/87/67 69/85/65 
f 59/69/55 58/66/54 72/88/68 71/87/67 
f 58/66/54 49/49/45 70/86/66 72/88/68 
f 56/63/52 55/62/51 73/89/69 74/90/70 
f 55/62/51 60/71/56 75/91/71 73/89/69 
f 60/71/56 59/69/55 76/92/72 75/91/71 
f 59/69/55 56/63/52 74/90/70 76/92/72 
f 55/62/51 54/61/50 77/93/73 78/94/74 
f 54/61/50 61/72/57 79/95/75 77/93/73 
f 61/72/57 60/71/56 80/96/76 79/95/75 
f 60/71/56 55/62/51 78/94/74 80/96/76 
f 54/59/50 53/57/49 81/97/77 82/98/78 
f 53/57/49 62/74/58 83/99/79 81/97/77 
f 62/74/58 61/73/57 84/100/80 83/99/79 
f 61/73/57 54/59/50 82/98/78 84/100/80 
f 53/57/49 52/55/48 85/101/81 86/102/82 
f 52/55/48 63/77/59 87/103/83 85/101/81 
f 63/77/59 62/74/58 88/104/84 87/103/83 
f 62/74/58 53/57/49 86/102/82 88/104/84 
f 52/55/48 51/53/47 89/105/85 90/106/86 
f 51/53/47 64/79/60 91/107/87 89/105/85 
f 64/79/60 63/77/59 92/108/88 91/107/87 
f 63/77/59 52/55/48 90/106/86 92/108/88 
f 51/53/47 50/50/46 93/109/89 94/110/90 
f 50/50/46 57/65/53 95/111/91 93/109/89 
f 57/65/53 64/79/60 96/112/92 95/111/91 
f 64/79/60 51/53/47 94/110/90 96/112/92 
f 66/82/62 65/81/61 10/10/10 9/9/9 
f 65/81/61 67/83/63 11/11/11 10/10/10 
f 67/83/63 68/84/64 12/12/12 11/11/11 
f 68/84/64 66/82/62 9/9/9 12/12/12 
f 70/86/66 69/85/65 14/14/14 13/13/13 
f 69/85/65 71/87/67 15/15/15 14/14/14 
f 71/87/67 72/88/68 16/16/16 15/15/15 
f 72/88/68 70/86/66 13/13/13 16/16/16 
f 74/90/70 73/89/69 18/18/18 17/17/17 
f 73/89/69 75/91/71 19/19/19 18/18/18 
f 75/91/71 76/92/72 20/20/20 19/19/19 
f 76/92/72 74/90/70 17/17/17 20/20/20 
f 78/94/74 77/93/73 22/22/22 21/21/21 
f 77/93/73 79/95/75 23/23/23 22/22/22 
f 79/95/75 80/96/76 24/24/24 23/23/23 
f 80/96/76 78/94/74 21/21/21 24/24/24 
f 82/98/78 81/97/77 26/26/26 25/25/25 
f 81/97/77 83/99/79 27/27/27 26/26/26 
f 83/99/79 84/100/80 28/28/28 27/27/27 
f 84/100/80 82/98/78 25/25/25 28/28/28 
f 86/102/82 85/101/81 30/30/30 29/29/29 
f 85/101/81 87/103/83 31/31/31 30/30/30 
f 87/103/83 88/104/84 32/32/32 31/31/31 
f 88/104/84 86/102/82 29/29/29 32/32/32 
f 90/106/86 89/105/85 34/34/25 33/33/33 
f 89/105/85 91/107/87 35/35/28 34/34/25 
f 91/107/87 92/108/88 36/36/34 35/35/28 
f 92/108/88 90/106/86 33/33/33 36/36/34 
f 94/110/90 93/109/89 38/38/29 37/37/35 
f 93/109/89 95/111/91 39/39/32 38/38/29 
f 95/111/91 96/112/92 40/40/36 39/39/32 
f 96/112/92 94/110/90 37/37/35 40/40/36 
# 90 polygons

