# author: headus 3D tools
#  using: ply2obj v1.12
#   from: uvlayout v2024.01
# 148 vertices
v -71.48630 0.97460 42.27510
v -71.48630 0.97460 36.79930
v -63.72551 0.97460 36.79930
v -63.72551 0.97460 42.27510
v -74.10268 71.72950 44.89147
v -68.90152 71.72950 44.89147
v -68.90152 71.72950 41.85350
v -74.10268 71.72950 41.85350
v -74.10268 56.79009 48.08150
v -68.90152 56.79009 48.08150
v -68.90152 70.72490 48.08150
v -74.10268 70.72490 48.08150
v -74.10268 0.97460 44.89147
v -74.10268 0.97460 39.07670
v 68.90148 71.72950 44.89147
v 68.90148 71.72950 41.85350
v -66.05781 0.97460 44.89147
v -68.90152 71.72950 -41.85349
v -74.10268 71.72950 -41.85349
v -77.29270 56.79009 41.85350
v -77.29270 56.79009 44.89147
v -77.29270 70.72490 44.89147
v -77.29270 70.72490 41.85350
v -74.10268 55.78539 39.07670
v -74.10268 55.78539 -39.07670
v -71.48630 55.78539 -36.79930
v -71.48630 55.78539 36.79930
v -66.05781 55.78539 44.89147
v -63.72551 55.78539 42.27510
v 63.72550 55.78539 42.27510
v 66.05781 55.78539 44.89147
v 71.48631 0.97460 42.27510
v 63.72550 0.97460 42.27510
v 63.72550 0.97460 36.79930
v 71.48631 0.97460 36.79930
v 74.10270 71.72950 44.89147
v 74.10270 71.72950 41.85350
v 74.10270 56.79009 48.08150
v 74.10270 70.72490 48.08150
v 68.90148 70.72490 48.08150
v 68.90148 56.79009 48.08150
v 74.10270 0.97460 44.89147
v 74.10270 0.97460 39.07670
v 66.05781 0.97460 44.89147
v 74.10270 71.72950 -41.85349
v 68.90148 71.72950 -41.85349
v 77.29270 56.79009 41.85350
v 77.29270 70.72490 41.85350
v 77.29270 70.72490 44.89147
v 77.29270 56.79009 44.89147
v 74.10270 55.78539 39.07670
v 71.48631 55.78539 36.79930
v 71.48631 55.78539 -36.79930
v 74.10270 55.78539 -39.07670
v -63.72551 55.78539 36.79930
v 63.72550 55.78539 36.79930
v 77.29270 56.79009 -41.85349
v 77.29270 70.72490 -41.85349
v -63.72551 55.78539 -36.79930
v 63.72550 55.78539 -36.79930
v -71.48630 0.97460 -42.27510
v -63.72551 0.97460 -42.27510
v -63.72551 0.97460 -36.79930
v -71.48630 0.97460 -36.79930
v -74.10268 71.72950 -44.89149
v -68.90152 71.72950 -44.89149
v -74.10268 56.79009 -48.08149
v -74.10268 70.72490 -48.08149
v -68.90152 70.72490 -48.08149
v -68.90152 56.79009 -48.08149
v -74.10268 0.97460 -44.89149
v -74.10268 0.97460 -39.07670
v 68.90148 71.72950 -44.89149
v -66.05781 0.97460 -44.89149
v -77.29270 56.79009 -41.85349
v -77.29270 70.72490 -41.85349
v -77.29270 70.72490 -44.89149
v -77.29270 56.79009 -44.89149
v 66.05781 55.78539 -44.89149
v 63.72550 55.78539 -42.27510
v -63.72551 55.78539 -42.27510
v -66.05781 55.78539 -44.89149
v 71.48631 0.97460 -42.27510
v 71.48631 0.97460 -36.79930
v 63.72550 0.97460 -36.79930
v 63.72550 0.97460 -42.27510
v 74.10270 71.72950 -44.89149
v 74.10270 56.79009 -48.08149
v 68.90148 56.79009 -48.08149
v 68.90148 70.72490 -48.08149
v 74.10270 70.72490 -48.08149
v 74.10270 0.97460 -44.89149
v 74.10270 0.97460 -39.07670
v 66.05781 0.97460 -44.89149
v 77.29270 56.79009 -44.89149
v 77.29270 70.72490 -44.89149
v -76.49520 71.47840 44.89147
v -76.09649 71.35279 46.88519
v -74.10268 71.47840 47.28400
v -76.49520 56.79009 47.28400
v -76.09649 56.16220 46.88519
v -74.10268 56.03659 47.28400
v -76.49520 70.72490 47.28400
v -76.49520 56.03659 44.89147
v 74.10270 71.47840 47.28400
v 76.09648 71.35279 46.88519
v 76.49520 71.47840 44.89147
v 74.10270 56.03659 47.28400
v 76.09648 56.16220 46.88519
v 76.49520 56.79009 47.28400
v 76.49520 70.72490 47.28400
v 76.49520 56.03659 44.89147
v -74.10268 71.47840 -47.28400
v -76.09649 71.35279 -46.88520
v -76.49520 71.47840 -44.89149
v -74.10268 56.03659 -47.28400
v -76.09649 56.16220 -46.88520
v -76.49520 56.79009 -47.28400
v -76.49520 70.72490 -47.28400
v -76.49520 56.03659 -44.89149
v 76.49520 71.47840 -44.89149
v 76.09648 71.35279 -46.88520
v 74.10270 71.47840 -47.28400
v 76.49520 56.79009 -47.28400
v 76.09648 56.16220 -46.88520
v 74.10270 56.03659 -47.28400
v 76.49520 70.72490 -47.28400
v 76.49520 56.03659 -44.89149
v -68.90152 71.47840 47.28400
v -76.49520 71.47840 41.85350
v -68.19060 56.03659 47.28400
v -74.10268 55.78539 44.89147
v -76.49520 56.03659 41.15931
v 68.90148 71.47840 47.28400
v -76.49520 71.47840 -41.85349
v -76.49520 56.03659 -41.15930
v 68.19059 56.03659 47.28400
v 76.49520 71.47840 41.85350
v 74.10270 55.78539 44.89147
v 76.49520 56.03659 41.15931
v 76.49520 71.47840 -41.85349
v 76.49520 56.03659 -41.15930
v -68.90152 71.47840 -47.28400
v -68.19060 56.03659 -47.28400
v -74.10268 55.78539 -44.89149
v 68.90148 71.47840 -47.28400
v 68.19059 56.03659 -47.28400
v 74.10270 55.78539 -44.89149
# 124 normals
vn 0.000000 -1.000000 0.000000
vn -0.270494 -0.636025 -0.722639
vn 0.577336 -0.577336 -0.577336
vn 0.721724 -0.635018 0.274919
vn -0.155893 0.975371 0.155893
vn 0.000000 0.987090 0.160136
vn 0.000000 1.000000 0.000000
vn -0.160136 0.987090 0.000000
vn -0.155893 -0.155893 0.975371
vn 0.000000 -0.160136 0.987090
vn 0.000000 0.160136 0.987090
vn -0.155893 0.155893 0.975371
vn -0.577336 -0.577336 0.577336
vn -0.710676 -0.624580 -0.323598
vn 0.319020 -0.625587 0.711896
vn -0.987090 -0.160136 0.000000
vn -0.975371 -0.155893 0.155893
vn -0.975371 0.155893 0.155893
vn -0.987090 0.160136 0.000000
vn -0.667124 -0.711683 -0.219893
vn -0.667124 -0.711683 0.219893
vn -0.212598 -0.795031 0.567997
vn -0.212598 -0.795031 -0.567997
vn 0.217695 -0.709699 0.669932
vn 0.564732 -0.796679 0.215132
vn -0.564732 -0.796679 0.215132
vn -0.217695 -0.709699 0.669932
vn -0.721724 -0.635018 0.274919
vn -0.577336 -0.577336 -0.577336
vn 0.270494 -0.636025 -0.722639
vn 0.155893 0.975371 0.155893
vn 0.160136 0.987090 0.000000
vn 0.155893 -0.155893 0.975371
vn 0.155893 0.155893 0.975371
vn 0.000000 -0.160136 0.987090
vn 0.577336 -0.577336 0.577336
vn 0.710676 -0.624580 -0.323598
vn -0.319020 -0.625587 0.711896
vn 0.987090 -0.160136 0.000000
vn 0.987090 0.160136 0.000000
vn 0.975371 0.155893 0.155893
vn 0.975371 -0.155893 0.155893
vn 0.667124 -0.711683 -0.219893
vn 0.212598 -0.795031 -0.567997
vn 0.212598 -0.795031 0.567997
vn 0.667124 -0.711683 0.219893
vn 0.301410 -0.904413 -0.301410
vn -0.301410 -0.904413 -0.301410
vn 0.987090 -0.160136 0.000000
vn 0.301410 -0.904413 0.301410
vn -0.301410 -0.904413 0.301410
vn 0.721724 -0.635018 -0.274919
vn -0.270494 -0.636025 0.722639
vn -0.155893 0.975371 -0.155893
vn 0.000000 0.987090 -0.160136
vn -0.155893 -0.155893 -0.975371
vn -0.155893 0.155893 -0.975371
vn 0.000000 0.160136 -0.987090
vn 0.000000 -0.160136 -0.987090
vn -0.710676 -0.624580 0.323598
vn 0.319020 -0.625587 -0.711896
vn -0.987090 -0.160136 0.000000
vn -0.975371 0.155893 -0.155893
vn -0.975371 -0.155893 -0.155893
vn -0.217695 -0.709699 -0.669932
vn -0.564732 -0.796679 -0.215132
vn 0.564732 -0.796679 -0.215132
vn 0.217695 -0.709699 -0.669932
vn 0.270494 -0.636025 0.722639
vn -0.721724 -0.635018 -0.274919
vn 0.155893 0.975371 -0.155893
vn 0.155893 -0.155893 -0.975371
vn 0.000000 -0.160136 -0.987090
vn 0.155893 0.155893 -0.975371
vn 0.710676 -0.624580 0.323598
vn -0.319020 -0.625587 -0.711896
vn 0.975371 -0.155893 -0.155893
vn 0.975371 0.155893 -0.155893
vn -0.700879 0.700879 0.132332
vn -0.577214 0.577336 0.577214
vn -0.132332 0.700879 0.700879
vn -0.700879 -0.132332 0.700879
vn -0.132271 -0.700879 0.700879
vn -0.700879 0.132332 0.700879
vn -0.700879 -0.700879 0.132332
vn 0.132332 0.700879 0.700879
vn 0.577214 0.577336 0.577214
vn 0.700879 0.700879 0.132332
vn 0.132271 -0.700879 0.700879
vn 0.700879 -0.132332 0.700879
vn 0.700879 0.132332 0.700879
vn 0.700879 -0.700879 0.132332
vn -0.132332 0.700879 -0.700879
vn -0.577214 0.577336 -0.577214
vn -0.700879 0.700879 -0.132332
vn -0.132271 -0.700879 -0.700879
vn -0.700879 -0.132332 -0.700879
vn -0.700879 0.132332 -0.700879
vn -0.700879 -0.700879 -0.132332
vn 0.700879 0.700879 -0.132332
vn 0.577214 0.577336 -0.577214
vn 0.132332 0.700879 -0.700879
vn 0.700879 -0.132332 -0.700879
vn 0.132271 -0.700879 -0.700879
vn 0.700879 0.132332 -0.700879
vn 0.700879 -0.700879 -0.132332
vn 0.000000 0.707013 0.707013
vn -0.707013 0.707013 0.000000
vn 0.000000 -0.707013 0.707013
vn -0.449582 -0.771715 0.449582
vn -0.707013 -0.707013 0.000000
vn 0.000000 0.707013 0.707013
vn -0.707013 -0.707013 0.000000
vn 0.000000 -0.707013 0.707013
vn 0.707013 0.707013 0.000000
vn 0.449582 -0.771715 0.449582
vn 0.707013 -0.707013 0.000000
vn 0.707013 -0.707013 0.000000
vn 0.000000 0.707013 -0.707013
vn 0.000000 -0.707013 -0.707013
vn -0.449582 -0.771715 -0.449582
vn 0.000000 0.707013 -0.707013
vn 0.000000 -0.707013 -0.707013
vn 0.449582 -0.771715 -0.449582
# 224 uv coords
vt 0.141218 0.202157
vt 0.159819 0.202230
vt 0.159857 0.212977
vt 0.141287 0.212956
vt 0.140931 0.140914
vt 0.159661 0.140360
vt 0.159716 0.190162
vt 0.140809 0.190458
vt 0.653436 0.202113
vt 0.653431 0.212852
vt 0.159950 0.512692
vt 0.141387 0.512748
vt 0.079362 0.212904
vt 0.079876 0.201968
vt 0.129444 0.201731
vt 0.129166 0.212861
vt 0.672033 0.201993
vt 0.671993 0.212795
vt 0.672227 0.140762
vt 0.672414 0.190302
vt 0.653502 0.190050
vt 0.653503 0.140264
vt 0.672092 0.512586
vt 0.653523 0.512567
vt 0.733894 0.212646
vt 0.684095 0.212663
vt 0.683798 0.201539
vt 0.733363 0.201707
vt 0.734018 0.512633
vt 0.684213 0.512677
vt 0.141348 0.523551
vt 0.159944 0.523433
vt 0.141152 0.584783
vt 0.140966 0.535242
vt 0.159878 0.535498
vt 0.159877 0.585283
vt 0.653561 0.523314
vt 0.079485 0.512891
vt 0.129286 0.512877
vt 0.129582 0.524003
vt 0.080016 0.523829
vt 0.672162 0.523385
vt 0.672449 0.584629
vt 0.653719 0.585183
vt 0.653664 0.535383
vt 0.672572 0.535085
vt 0.733503 0.523569
vt 0.683936 0.523808
vt 0.132857 0.201910
vt 0.133724 0.194689
vt 0.140974 0.193837
vt 0.672256 0.193676
vt 0.679507 0.194507
vt 0.680389 0.201725
vt 0.141124 0.531870
vt 0.133873 0.531035
vt 0.132991 0.523818
vt 0.680523 0.523630
vt 0.679657 0.530851
vt 0.672407 0.531705
vt 0.159755 0.193821
vt 0.132837 0.212903
vt 0.653477 0.193705
vt 0.132949 0.512824
vt 0.680432 0.212717
vt 0.680542 0.512639
vt 0.159903 0.531840
vt 0.653626 0.531722
vt 0.162141 0.136357
vt 0.651011 0.136277
vt 0.681234 0.140832
vt 0.682055 0.191963
vt 0.672650 0.136933
vt 0.140498 0.137087
vt 0.131170 0.192147
vt 0.131922 0.141006
vt 0.680183 0.137824
vt 0.132967 0.137997
vt 0.733246 0.192693
vt 0.079979 0.192954
vt 0.736258 0.193721
vt 0.737196 0.201223
vt 0.076042 0.201489
vt 0.076969 0.193989
vt 0.737924 0.215021
vt 0.075334 0.215287
vt 0.738045 0.510249
vt 0.075456 0.510515
vt 0.737337 0.524045
vt 0.733400 0.532582
vt 0.682210 0.533394
vt 0.651240 0.589186
vt 0.162368 0.589269
vt 0.076184 0.524313
vt 0.131324 0.533580
vt 0.080133 0.532843
vt 0.736411 0.531548
vt 0.681459 0.584537
vt 0.672881 0.588456
vt 0.132145 0.584713
vt 0.140730 0.588612
vt 0.077121 0.531814
vt 0.680414 0.587545
vt 0.133196 0.587719
vt 0.800267 0.236510
vt 0.837421 0.732659
vt 0.932556 0.033274
vt 0.805901 0.472200
vt 0.635452 0.629594
vt 0.635462 0.649201
vt 0.178944 0.649195
vt 0.178937 0.629567
vt 0.663257 0.912810
vt 0.635461 0.912827
vt 0.663270 0.649187
vt 0.178951 0.932434
vt 0.178945 0.912818
vt 0.635467 0.932447
vt 0.151145 0.649209
vt 0.151138 0.912831
vt 0.643798 0.620212
vt 0.170578 0.620202
vt 0.672627 0.920950
vt 0.672651 0.641018
vt 0.170607 0.941820
vt 0.643825 0.941817
vt 0.141768 0.641067
vt 0.141766 0.920998
vt 0.162928 0.611596
vt 0.651435 0.611590
vt 0.681260 0.633544
vt 0.681241 0.928407
vt 0.651475 0.950427
vt 0.162968 0.950434
vt 0.133158 0.928470
vt 0.133152 0.633608
vt 0.141776 0.620259
vt 0.141739 0.611647
vt 0.672601 0.620203
vt 0.672619 0.611590
vt 0.681212 0.620159
vt 0.672625 0.941759
vt 0.681236 0.941783
vt 0.672664 0.950369
vt 0.141807 0.941813
vt 0.141785 0.950426
vt 0.133197 0.941854
vt 0.133164 0.620231
vt 0.134572 0.613065
vt 0.679787 0.612994
vt 0.679831 0.948949
vt 0.134617 0.949019
vt 0.803904 0.688486
vt 0.791496 0.687657
vt 0.804577 0.491768
vt 0.816951 0.492594
vt 0.763753 0.685800
vt 0.776847 0.489908
vt 0.824699 0.689872
vt 0.837711 0.493977
vt 0.778164 0.470332
vt 0.853468 0.691782
vt 0.866443 0.495885
vt 0.815885 0.463483
vt 0.814478 0.484263
vt 0.787133 0.461542
vt 0.866011 0.692613
vt 0.878950 0.496714
vt 0.885591 0.693905
vt 0.898510 0.498004
vt 0.845353 0.950233
vt 0.817668 0.947691
vt 0.863309 0.754730
vt 0.805280 0.946552
vt 0.823269 0.751052
vt 0.835628 0.752188
vt 0.865103 0.735195
vt 0.784519 0.944637
vt 0.802548 0.749140
vt 0.857639 0.725100
vt 0.828944 0.722470
vt 0.827042 0.743211
vt 0.755806 0.941985
vt 0.773870 0.746490
vt 0.743286 0.940825
vt 0.761387 0.745335
vt 0.723746 0.939012
vt 0.741866 0.743526
vt 0.893347 0.452936
vt 0.873731 0.452840
vt 0.874695 0.256516
vt 0.894304 0.256612
vt 0.861164 0.452777
vt 0.862154 0.256454
vt 0.832330 0.452628
vt 0.833359 0.256304
vt 0.811486 0.452515
vt 0.812550 0.256191
vt 0.799048 0.452444
vt 0.800146 0.256122
vt 0.771242 0.452286
vt 0.772352 0.255960
vt 0.772468 0.236344
vt 0.809696 0.227196
vt 0.809567 0.248022
vt 0.780881 0.227021
vt 0.840257 0.242259
vt 0.820704 0.240619
vt 0.837096 0.044979
vt 0.856634 0.046616
vt 0.852786 0.243306
vt 0.869129 0.047662
vt 0.881517 0.245706
vt 0.897831 0.050058
vt 0.902291 0.247438
vt 0.918568 0.051790
vt 0.914688 0.248470
vt 0.930936 0.052819
vt 0.942396 0.250770
vt 0.958637 0.055117
vt 0.960260 0.035570
vt 0.952708 0.025540
vt 0.923990 0.023161
vt 0.922271 0.043917
# 146 polygons
usemtl wire_006135006
s 1
g Box001
f 1/105/1 2/200/2 3/202/3 4/203/4
f 5/1/5 6/2/6 7/3/7 8/4/8
s 2
f 9/5/9 10/6/10 11/7/11 12/8/12
s 1
f 13/204/13 14/205/14 2/200/2 1/105/1
f 6/2/6 15/9/6 16/10/7 7/3/7
f 17/206/15 13/204/13 1/105/1 4/203/4
f 7/3/7 18/11/7 19/12/8 8/4/8
s 4
f 20/13/16 21/14/17 22/15/18 23/16/19
s 1
f 24/128/20 25/127/21 26/119/22 27/120/23
f 28/125/24 29/116/25 30/118/26 31/126/27
f 32/106/1 33/177/28 34/173/29 35/176/30
f 36/17/31 37/18/32 16/10/7 15/9/6
s 2
f 38/19/33 39/20/34 40/21/11 41/22/35
s 1
f 42/181/36 32/106/1 35/176/30 43/182/37
s 2
f 41/22/35 40/21/11 11/7/11 10/6/10
s 1
f 44/180/38 33/177/28 32/106/1 42/181/36
f 16/10/7 37/18/32 45/23/32 46/24/7
s 4
f 47/25/39 48/26/40 49/27/41 50/28/42
s 1
f 51/123/43 52/113/44 53/115/45 54/124/46
f 29/116/25 55/117/47 56/114/48 30/118/26
s 4
f 57/29/49 58/30/40 48/26/40 47/25/39
s 1
f 59/111/50 60/110/51 56/114/48 55/117/47
f 61/107/1 62/221/52 63/220/36 64/218/53
f 65/31/54 19/12/8 18/11/7 66/32/55
s 2
f 67/33/56 68/34/57 69/35/58 70/36/59
s 1
f 71/223/29 61/107/1 64/218/53 72/224/60
f 66/32/55 18/11/7 46/24/7 73/37/55
f 74/222/61 62/221/52 61/107/1 71/223/29
f 26/119/22 59/111/50 55/117/47 27/120/23
s 4
f 75/38/62 76/39/19 77/40/63 78/41/64
s 1
f 79/121/65 80/109/66 81/112/67 82/122/68
s 4
f 20/13/16 23/16/19 76/39/19 75/38/62
s 1
f 83/108/1 84/155/69 85/158/13 86/161/70
f 87/42/71 73/37/55 46/24/7 45/23/32
s 2
f 88/43/72 89/44/73 90/45/58 91/46/74
s 1
f 92/164/3 93/165/75 84/155/69 83/108/1
s 2
f 89/44/73 70/36/59 69/35/58 90/45/58
s 1
f 94/166/76 92/164/3 83/108/1 86/161/70
f 53/115/45 52/113/44 56/114/48 60/110/51
s 4
f 57/29/49 95/47/77 96/48/78 58/30/40
s 1
f 80/109/66 60/110/51 59/111/50 81/112/67
f 46/24/7 18/11/7 7/3/7 16/10/7
f 5/1/5 97/49/79 98/50/80 99/51/81
s 2
f 9/5/9 100/76/82 101/78/13 102/74/83
f 12/8/12 99/51/81 98/50/80 103/75/84
s 4
f 21/14/17 104/83/85 101/84/13 100/80/82
f 22/15/18 103/75/84 98/50/80 97/49/79
s 1
f 36/17/31 105/52/86 106/53/87 107/54/88
s 2
f 38/19/33 108/73/89 109/77/36 110/71/90
f 39/20/34 111/72/91 106/53/87 105/52/86
s 4
f 49/27/41 107/54/88 106/53/87 111/72/91
f 50/28/42 110/79/90 109/81/36 112/82/92
s 1
f 65/31/54 113/55/93 114/56/94 115/57/95
s 2
f 67/33/56 116/101/96 117/104/29 118/100/97
f 68/34/57 119/95/98 114/56/94 113/55/93
s 4
f 77/40/63 115/57/95 114/56/94 119/95/98
f 78/41/64 118/96/97 117/102/29 120/94/99
s 1
f 87/42/71 121/58/100 122/59/101 123/60/102
s 2
f 88/43/72 124/98/103 125/103/3 126/99/104
f 91/46/74 123/60/102 122/59/101 127/91/105
s 4
f 95/47/77 128/89/106 125/97/3 124/90/103
f 96/48/78 127/91/105 122/59/101 121/58/100
s 1
f 6/2/6 5/1/5 99/51/81 129/61/107
f 5/1/5 8/4/8 130/62/108 97/49/79
s 2
f 10/6/10 9/5/9 102/74/83 131/69/109
f 12/8/12 11/7/11 129/61/107 99/51/81
f 9/5/9 12/8/12 103/75/84 100/76/82
s 1
f 24/128/20 132/145/110 104/147/85 133/135/111
f 15/9/6 6/2/6 129/61/107 134/63/112
f 132/145/110 28/125/24 131/134/109 102/146/83
f 8/4/8 19/12/8 135/64/108 130/62/108
s 4
f 21/14/17 20/13/16 133/86/111 104/83/85
f 22/15/18 21/14/17 100/80/82 103/75/84
f 23/16/19 22/15/18 97/49/79 130/62/108
s 1
f 25/127/21 24/128/20 133/135/111 136/136/113
f 28/125/24 31/126/27 137/133/114 131/134/109
f 37/18/32 36/17/31 107/54/88 138/65/115
f 36/17/31 15/9/6 134/63/112 105/52/86
s 2
f 39/20/34 38/19/33 110/71/90 111/72/91
f 40/21/11 39/20/34 105/52/86 134/63/112
f 38/19/33 41/22/35 137/70/114 108/73/89
s 1
f 139/142/116 51/123/43 140/132/117 112/143/92
s 2
f 11/7/11 40/21/11 134/63/112 129/61/107
f 41/22/35 10/6/10 131/69/109 137/70/114
s 1
f 31/126/27 139/142/116 108/144/89 137/133/114
f 45/23/32 37/18/32 138/65/115 141/66/115
s 4
f 49/27/41 48/26/40 138/65/115 107/54/88
f 50/28/42 49/27/41 111/72/91 110/79/90
f 47/25/39 50/28/42 112/82/92 140/85/117
s 1
f 51/123/43 54/124/46 142/131/118 140/132/117
s 4
f 48/26/40 58/30/40 141/66/115 138/65/115
f 57/29/49 47/25/39 140/85/117 142/87/118
s 1
f 19/12/8 65/31/54 115/57/95 135/64/108
f 65/31/54 66/32/55 143/67/119 113/55/93
s 2
f 68/34/57 67/33/56 118/100/97 119/95/98
f 69/35/58 68/34/57 113/55/93 143/67/119
f 67/33/56 70/36/59 144/93/120 116/101/96
s 1
f 145/137/121 25/127/21 136/136/113 120/148/99
f 66/32/55 73/37/55 146/68/122 143/67/119
f 82/122/68 145/137/121 116/138/96 144/129/120
s 4
f 77/40/63 76/39/19 135/64/108 115/57/95
f 78/41/64 77/40/63 119/95/98 118/96/97
f 75/38/62 78/41/64 120/94/99 136/88/113
s 1
f 79/121/65 82/122/68 144/129/120 147/130/123
s 4
f 76/39/19 23/16/19 130/62/108 135/64/108
f 20/13/16 75/38/62 136/88/113 133/86/111
s 1
f 73/37/55 87/42/71 123/60/102 146/68/122
f 87/42/71 45/23/32 141/66/115 121/58/100
s 2
f 89/44/73 88/43/72 126/99/104 147/92/123
f 91/46/74 90/45/58 146/68/122 123/60/102
f 88/43/72 91/46/74 127/91/105 124/98/103
s 1
f 54/124/46 148/139/124 128/141/106 142/131/118
s 2
f 70/36/59 89/44/73 147/92/123 144/93/120
f 90/45/58 69/35/58 143/67/119 146/68/122
s 1
f 148/139/124 79/121/65 147/130/123 126/140/104
s 4
f 95/47/77 57/29/49 142/87/118 128/89/106
f 96/48/78 95/47/77 124/90/103 127/91/105
f 58/30/40 96/48/78 121/58/100 141/66/115
s 1
f 132/145/110 102/146/83 101/152/13 104/147/85
f 139/142/116 112/143/92 109/151/36 108/144/89
f 145/137/121 120/148/99 117/149/29 116/138/96
f 148/139/124 126/140/104 125/150/3 128/141/106
s off
f 27/199/23 55/201/47 3/202/3 2/200/2
f 55/189/47 29/190/25 4/191/4 3/192/3
f 29/190/25 28/193/24 17/194/15 4/191/4
f 28/193/24 132/195/110 13/196/13 17/194/15
f 132/195/110 24/197/20 14/198/14 13/196/13
f 24/197/20 27/199/23 2/200/2 14/198/14
f 31/183/27 30/185/26 33/186/28 44/184/38
f 30/185/26 56/187/48 34/188/29 33/186/28
f 56/171/48 52/172/44 35/176/30 34/173/29
f 52/172/44 51/174/43 43/175/37 35/176/30
f 51/174/43 139/178/116 42/179/36 43/175/37
f 139/178/116 31/183/27 44/184/38 42/179/36
f 26/217/22 25/215/21 72/216/60 64/218/53
f 25/215/21 145/213/121 71/214/29 72/216/60
f 145/213/121 82/211/68 74/212/61 71/214/29
f 82/211/68 81/207/67 62/210/52 74/212/61
f 81/207/67 59/208/50 63/209/36 62/210/52
f 59/219/50 26/217/22 64/218/53 63/220/36
f 54/153/46 53/154/45 84/155/69 93/156/75
f 53/154/45 60/157/51 85/158/13 84/155/69
f 60/169/51 80/167/66 86/168/70 85/170/13
f 80/167/66 79/162/65 94/163/76 86/168/70
f 79/162/65 148/159/124 92/160/3 94/163/76
f 148/159/124 54/153/46 93/156/75 92/160/3
# h3dt: 148 224 124 146
