# author: headus 3D tools
#  using: ply2obj v1.12
#   from: uvlayout v2024.01
# 47 vertices
v 1413.7963 85.7669 865.0127
v 2057.3423 85.7669 832.8464
v 2081.5505 85.7669 530.9230
v 1304.2146 85.7669 636.1053
v 2051.5962 85.7669 273.9782
v 1326.2961 85.7669 471.0800
v 2018.9912 85.7669 39.4007
v 1318.2569 85.7669 309.8998
v 2001.4443 85.7669 -369.3184
v 1286.9392 85.7669 169.8114
v 1873.7610 85.7669 -512.5314
v 1259.8758 85.7669 83.2754
v 1423.3035 85.7669 -532.4391
v 1230.0400 85.7669 37.3068
v 426.8232 85.7669 -1168.2953
v -14.5326 85.7669 -1004.3875
v 38.7898 85.7669 -738.4089
v 504.1409 85.7669 -985.5387
v 140.3043 85.7669 -500.4745
v 533.2131 85.7669 -822.0521
v 286.4067 85.7669 -299.0334
v 633.6014 85.7669 -683.6401
v 471.9092 85.7669 -141.2379
v 761.0617 85.7669 -575.2174
v 690.2252 85.7669 -32.6910
v 911.0685 85.7669 -529.2941
v 933.6025 85.7669 22.7532
v 1078.2952 85.7669 -520.1988
v 1042.8949 85.7669 23.1259
v 1256.8044 85.7669 -519.9429
v 1212.0192 85.7669 29.9486
v 1342.3892 85.7669 -532.1548
v -93.7612 85.7669 -154.3247
v -70.4517 85.7669 -6.8108
v -113.6518 85.7669 -358.3582
v -127.3213 85.7669 -596.7187
v -133.9296 85.7669 -841.9621
v -198.4233 85.7669 -497.1193
v -194.6819 85.7669 -440.1595
v -201.6522 85.7669 -576.7955
v -203.8236 85.7669 -667.8623
v -204.8506 85.7669 -759.5893
v -1047.6285 85.7669 -382.4945
v -1043.4317 85.7669 -318.5924
v -1051.3315 85.7671 -473.8523
v -1053.7005 85.7669 -573.2255
v -1054.7677 85.7669 -668.5597
# 4 normals
vn 0.000000 1.000000 0.000000
vn 0.000000 1.000000 0.000000
vn 0.000000 1.000000 0.000000
vn 0.000000 1.000000 0.000000
# 47 uv coords
vt 0.354966 0.721941
vt 0.380330 0.645996
vt 0.420397 0.580196
vt 0.299469 0.545048
vt 0.298390 0.608496
vt 0.300146 0.682382
vt 0.275531 0.653403
vt 0.276624 0.678090
vt 0.278342 0.706260
vt 0.537103 0.690236
vt 0.509597 0.735426
vt 0.504730 0.786583
vt 0.573714 0.653630
vt 0.485447 0.844905
vt 0.345185 0.805345
vt 0.303020 0.498953
vt 0.473719 0.526881
vt 0.538419 0.487977
vt 0.618844 0.635765
vt 0.304326 0.758212
vt 0.011796 0.669488
vt 0.010516 0.641228
vt 0.275199 0.635725
vt 0.612178 0.464858
vt 0.670196 0.628851
vt 0.280442 0.734589
vt 0.013694 0.700199
vt 0.010097 0.621418
vt 0.645924 0.462057
vt 0.725250 0.624409
vt 0.015924 0.729634
vt 0.697969 0.455810
vt 0.751936 0.626099
vt 0.776891 0.624227
vt 0.703370 0.453098
vt 0.915407 0.607153
vt 0.711479 0.438176
vt 0.951325 0.559886
vt 0.717750 0.410793
vt 0.946845 0.433345
vt 0.724041 0.366778
vt 0.951246 0.360186
vt 0.722643 0.316816
vt 0.954310 0.280188
vt 0.711861 0.266389
vt 0.740198 0.193095
vt 0.939601 0.187596
# 27 polygons
usemtl wire_135110008
s 4
g Box003
f 1/46/1 2/47/1 3/44/2 4/45/1
f 4/45/1 3/44/2 5/42/2 6/43/3
f 6/43/3 5/42/2 7/40/3 8/41/3
f 8/41/3 7/40/3 9/38/3 10/39/3
f 10/39/3 9/38/3 11/36/4 12/37/3
f 12/37/3 11/36/4 13/34/2 14/35/2
f 15/14/4 16/15/3 17/1/4 18/12/3
f 18/12/3 17/1/4 19/2/4 20/11/2
f 20/11/2 19/2/4 21/3/3 22/10/3
f 22/10/3 21/3/3 23/17/4 24/13/3
f 24/13/3 23/17/4 25/18/1 26/19/1
f 26/19/1 25/18/1 27/24/3 28/25/3
f 28/25/3 27/24/3 29/29/4 30/30/4
f 30/30/4 29/29/4 31/32/2 32/33/1
s 16
f 14/35/2 13/34/2 32/33/1 31/32/2
s off
f 23/17/4 21/3/3 33/4/3 34/16/3
f 21/3/3 19/2/4 35/5/1 33/4/3
f 19/2/4 17/1/4 36/6/1 35/5/1
f 17/1/4 16/15/3 37/20/3 36/6/1
f 34/16/3 33/4/3 38/7/3 39/23/3
f 33/4/3 35/5/1 40/8/4 38/7/3
f 35/5/1 36/6/1 41/9/4 40/8/4
f 36/6/1 37/20/3 42/26/3 41/9/4
f 39/23/3 38/7/3 43/22/4 44/28/4
f 38/7/3 40/8/4 45/21/3 43/22/4
f 40/8/4 41/9/4 46/27/3 45/21/3
f 41/9/4 42/26/3 47/31/3 46/27/3
# h3dt: 47 47 4 27
